<svg width="40" height="41" viewBox="0 0 40 41" fill="none" xmlns="http://www.w3.org/2000/svg">
<path d="M20 0C14.5683 0 13.8872 0.0231575 11.754 0.121058C9.62526 0.218799 8.17139 0.558815 6.89916 1.05614C5.58398 1.57024 4.46863 2.2581 3.35677 3.37645C2.24491 4.4948 1.56105 5.61666 1.04993 6.93951C0.555493 8.21909 0.21745 9.68144 0.120276 11.8226C0.0229438 13.9683 0 14.6534 0 20.1168C0 25.5801 0.0229438 26.2652 0.120276 28.4109C0.21745 30.552 0.555493 32.0144 1.04993 33.294C1.56105 34.6168 2.24491 35.7387 3.35677 36.8571C4.46863 37.9755 5.58398 38.6633 6.89916 39.1774C8.17139 39.6747 9.62526 40.0148 11.754 40.1124C13.8872 40.2103 14.5683 40.2335 20 40.2335C25.4317 40.2335 26.1128 40.2103 28.246 40.1124C30.3747 40.0148 31.8286 39.6747 33.1008 39.1774C34.4159 38.6633 35.5313 37.9755 36.6432 36.8571C37.7551 35.7387 38.439 34.6168 38.9501 33.294C39.4444 32.0144 39.7826 30.552 39.8796 28.4109C39.977 26.2652 40 25.5801 40 20.1168C40 14.6534 39.977 13.9683 39.8796 11.8226C39.7826 9.68144 39.4444 8.21909 38.9501 6.93951C38.439 5.61666 37.7551 4.4948 36.6432 3.37645C35.5313 2.2581 34.4159 1.57024 33.1008 1.05614C31.8286 0.558815 30.3747 0.218799 28.246 0.121058C26.1128 0.0231575 25.4317 0 20 0ZM20 3.62471C25.3402 3.62471 25.9728 3.64515 28.0817 3.74194C30.0317 3.83145 31.0907 4.15917 31.7954 4.43459C32.729 4.79952 33.3952 5.23552 34.095 5.93943C34.7949 6.64334 35.2283 7.31355 35.5911 8.25246C35.865 8.96132 36.1909 10.0265 36.2798 11.9879C36.376 14.1091 36.3964 14.7454 36.3964 20.1168C36.3964 25.4881 36.376 26.1244 36.2798 28.2456C36.1909 30.207 35.865 31.2722 35.5911 31.981C35.2283 32.92 34.7949 33.5902 34.095 34.2941C33.3952 34.9981 32.729 35.434 31.7954 35.7989C31.0907 36.0744 30.0317 36.4021 28.0817 36.4916C25.9731 36.5883 25.3406 36.6089 20 36.6089C14.6594 36.6089 14.027 36.5883 11.9183 36.4916C9.9683 36.4021 8.90932 36.0744 8.20457 35.7989C7.27102 35.434 6.60478 34.9981 5.90488 34.2941C5.20505 33.5902 4.77158 32.92 4.40885 31.981C4.13496 31.2722 3.80914 30.207 3.72014 28.2456C3.62392 26.1244 3.6036 25.4881 3.6036 20.1168C3.6036 14.7454 3.62392 14.1091 3.72014 11.9879C3.80914 10.0265 4.13496 8.96132 4.40885 8.25246C4.77158 7.31355 5.20505 6.64334 5.90488 5.93943C6.60478 5.23552 7.27102 4.79952 8.20457 4.43459C8.90932 4.15917 9.9683 3.83145 11.9183 3.74194C14.0272 3.64515 14.6598 3.62471 20 3.62471Z" fill="black"/>
<path d="M19.9978 26.8229C16.3159 26.8229 13.3311 23.8207 13.3311 20.1174C13.3311 16.4139 16.3159 13.4118 19.9978 13.4118C23.6797 13.4118 26.6645 16.4139 26.6645 20.1174C26.6645 23.8207 23.6797 26.8229 19.9978 26.8229ZM19.9978 9.78714C14.3257 9.78714 9.72754 14.4121 9.72754 20.1174C9.72754 25.8226 14.3257 30.4475 19.9978 30.4475C25.6699 30.4475 30.2681 25.8226 30.2681 20.1174C30.2681 14.4121 25.6699 9.78714 19.9978 9.78714Z" fill="black"/>
<path d="M33.0783 9.37808C33.0783 10.7113 32.0038 11.7921 30.6783 11.7921C29.3529 11.7921 28.2783 10.7113 28.2783 9.37808C28.2783 8.04485 29.3529 6.96411 30.6783 6.96411C32.0038 6.96411 33.0783 8.04485 33.0783 9.37808Z" fill="black"/>
</svg>
