<svg width="110" height="47" viewBox="0 0 110 47" fill="none" xmlns="http://www.w3.org/2000/svg">
<g clip-path="url(#clip0)">
<path d="M57.9769 5C58.1008 4.01709 57.7194 3.39037 56.9827 2.6L55.9885 1.8L54 1C54 1 52.3848 1.56641 52.0115 1.8C51.5781 2.07126 51.3468 2.24654 51.0173 2.6C50.2806 3.39037 49.8991 4.01709 50.0231 5C50.1644 6.12069 51.1111 6.53748 52.0115 7.4C52.7179 8.07662 54 9 54 9C54 9 55.2821 8.07662 55.9885 7.4C56.8889 6.53748 57.8356 6.12069 57.9769 5Z" fill="black"/>
<path d="M52.0115 1.8C52.3848 1.56641 54 1 54 1V0L52.0115 1.8Z" fill="black"/>
<path d="M54 1L55.9885 1.8L54 0V1Z" fill="black"/>
<path d="M39.2865 11.162L34.2348 10.5C34.2348 10.5 32.1757 9.98891 34.7586 18.1204C37.3415 26.2519 49.2183 30.5076 49.2183 30.5076C49.2183 30.5076 44.9239 26.9253 43.8031 25.3405C42.6823 23.7557 40.904 21.0217 40.2449 17.7433C39.5859 14.465 39.2865 11.162 39.2865 11.162Z" fill="black"/>
<path d="M53.0851 10.8444C53.0388 11.6875 49.9114 16.8854 49.8189 18.5717C48.5911 23.677 53.0191 29.3046 51.9765 31.0372C36.1594 22.6872 42.3428 3.63787 42.3428 3.63787C42.3428 3.63787 50.4936 6.28097 53.0851 10.8444Z" fill="black"/>
<path d="M68.0399 11.6322L73.6381 11.2358C73.6381 11.2358 75.9281 10.833 72.8018 18.8283C69.6756 26.8236 56.4227 30.4546 56.4227 30.4546C56.4227 30.4546 61.2838 27.0982 62.5746 25.5725C63.8654 24.0467 65.9208 21.4063 66.7592 18.1628C67.5977 14.9193 68.0399 11.6322 68.0399 11.6322Z" fill="black"/>
<path d="M64.7022 20.2554C61.836 27.4995 53.9149 31.0426 53.9149 31.0426C53.9149 31.0426 50.2189 22.5208 53.0852 15.2766C55.9514 8.03249 64.7022 3.5 64.7022 3.5C64.7022 3.5 67.5685 13.0112 64.7022 20.2554Z" fill="black"/>
<path d="M11.6211 47C11.6211 46.7135 11.5169 46.5508 11.3086 46.5117C11.2435 46.4987 11.1784 46.4922 11.1133 46.4922H10.4492L5.97656 35.2812H5.25391L0.878906 46.4922H-0.351562V47H3.125C3.125 46.7135 3.02083 46.5508 2.8125 46.5117C2.7474 46.4987 2.68229 46.4922 2.61719 46.4922H1.66016L3.125 42.7031H7.20703L8.67188 46.4922H7.40234V47H11.6211ZM6.99219 42.1367H3.33984L5.15625 37.4102L6.99219 42.1367ZM16.0156 46.5117H15.1367V42.293C15.1758 41.1471 15.5729 40.2943 16.3281 39.7344C16.6797 39.474 17.0312 39.3438 17.3828 39.3438C18.0339 39.3438 18.4831 39.7018 18.7305 40.418C18.8346 40.7305 18.8867 41.082 18.8867 41.4727V45.3398C18.8867 45.9388 18.7435 46.2969 18.457 46.4141C18.2747 46.4792 17.9622 46.5117 17.5195 46.5117V47H21.7188C21.7188 46.7135 21.6211 46.5573 21.4258 46.5312C21.3737 46.5182 21.3086 46.5117 21.2305 46.5117H20.3516V41.668V41.5117C20.5599 40.5612 21.0221 39.8971 21.7383 39.5195C22.0117 39.3893 22.2721 39.3242 22.5195 39.3242C23.1836 39.3242 23.6523 39.6693 23.9258 40.3594C24.056 40.6849 24.1211 41.056 24.1211 41.4727V45.3398C24.1211 45.9388 23.9779 46.2969 23.6914 46.4141C23.5091 46.4792 23.1966 46.5117 22.7539 46.5117V47H27.0703C27.0703 46.7135 26.9727 46.5573 26.7773 46.5312C26.7253 46.5182 26.6602 46.5117 26.582 46.5117H25.5859V41.668C25.5859 40.3268 25.1497 39.3893 24.2773 38.8555C23.8867 38.6211 23.4635 38.5039 23.0078 38.5039C22.0182 38.5039 21.224 38.9661 20.625 39.8906C20.4688 40.125 20.3385 40.3724 20.2344 40.6328C20 39.6042 19.4857 38.9401 18.6914 38.6406C18.457 38.5495 18.2161 38.5039 17.9688 38.5039C17.0312 38.5039 16.2565 38.901 15.6445 39.6953C15.4232 39.9818 15.2474 40.3008 15.1172 40.6523L15.0391 38.6992H12.207V39.1875H13.6719V45.3398C13.6719 45.9388 13.5026 46.2969 13.1641 46.4141C12.9688 46.4792 12.6497 46.5117 12.207 46.5117V47H16.5039C16.5039 46.7266 16.4062 46.5703 16.2109 46.5312C16.1458 46.5182 16.0807 46.5117 16.0156 46.5117ZM31.2695 46.668C32.168 46.668 32.7734 46.3945 33.0859 45.8477C33.2031 45.6523 33.2617 45.4375 33.2617 45.2031C33.2617 44.6562 32.8646 44.1875 32.0703 43.7969C31.901 43.7057 31.6211 43.5755 31.2305 43.4062C30.1628 42.9635 29.4531 42.5469 29.1016 42.1562C28.724 41.7266 28.5352 41.2253 28.5352 40.6523C28.5352 39.7539 29.0299 39.1224 30.0195 38.7578C30.4753 38.5885 30.9701 38.5039 31.5039 38.5039C32.3633 38.5039 33.1055 38.6862 33.7305 39.0508C33.7305 38.6732 33.8216 38.4583 34.0039 38.4062C34.082 38.3932 34.1667 38.3867 34.2578 38.3867V40.8281H33.75C33.724 39.6302 33.0599 39.0247 31.7578 39.0117C30.7812 39.0117 30.1758 39.2982 29.9414 39.8711C29.8763 40.0273 29.8438 40.1901 29.8438 40.3594C29.8438 40.9193 30.2474 41.3945 31.0547 41.7852C31.237 41.8763 31.5234 42 31.9141 42.1562C32.9688 42.5859 33.6719 42.9961 34.0234 43.3867C34.401 43.8034 34.5898 44.2982 34.5898 44.8711C34.5898 45.9258 34.0299 46.6289 32.9102 46.9805C32.4805 47.1237 32.0117 47.1953 31.5039 47.1953C30.5664 47.1823 29.7526 46.9479 29.0625 46.4922C29.0625 46.8307 28.9779 47.026 28.8086 47.0781C28.7305 47.0911 28.6393 47.0977 28.5352 47.0977V44.1289H29.082C29.1081 45.8086 29.8372 46.6549 31.2695 46.668ZM35.7617 39.1875H37.1289V44.6953C37.2201 46.3229 37.9688 47.1628 39.375 47.2148C40.5729 47.2148 41.3216 46.4792 41.6211 45.0078C41.6211 44.9948 41.6211 44.9818 41.6211 44.9688L41.0938 44.8711C40.7682 45.9518 40.293 46.5378 39.668 46.6289C38.9648 46.6029 38.6068 46.1016 38.5938 45.125V39.1875H41.6211V38.6992H38.5938V36.4336L37.1289 36.8438V38.6992H35.7617V39.1875ZM46.582 38.9922C47.4935 38.9922 48.099 39.3763 48.3984 40.1445C48.5026 40.3919 48.5547 40.6589 48.5547 40.9453C48.5547 41.5964 48.2422 41.9935 47.6172 42.1367C47.2917 42.2018 46.8294 42.2279 46.2305 42.2148L44.1602 42.1562C44.2253 40.6589 44.7135 39.6823 45.625 39.2266C45.9245 39.0703 46.2435 38.9922 46.582 38.9922ZM49.9805 45.125L49.4922 44.9492C49.0365 45.9388 48.3008 46.4987 47.2852 46.6289C47.1549 46.6419 47.0312 46.6484 46.9141 46.6484C45.5469 46.6484 44.6875 45.8346 44.3359 44.207C44.2318 43.7513 44.1732 43.25 44.1602 42.7031L46.5039 42.7422C48.0924 42.7682 49.1146 42.6185 49.5703 42.293C49.9219 42.0326 50.0977 41.6615 50.0977 41.1797C50.0977 40.2943 49.6484 39.5911 48.75 39.0703C48.112 38.6927 47.3763 38.5039 46.543 38.5039C44.9154 38.5039 43.75 39.181 43.0469 40.5352C42.6823 41.2383 42.5 42.0326 42.5 42.918C42.5 44.5326 43.0794 45.7305 44.2383 46.5117C44.9284 46.9674 45.7161 47.1953 46.6016 47.1953C48.0078 47.1953 49.043 46.6875 49.707 45.6719C49.8112 45.4896 49.9023 45.3073 49.9805 45.125ZM55.7422 46.5117H54.3359V42.625C54.3359 41.4401 54.7005 40.4896 55.4297 39.7734C55.7161 39.5 55.957 39.3568 56.1523 39.3438C56.3737 39.3438 56.5755 39.5065 56.7578 39.832C56.9661 40.1966 57.1615 40.4049 57.3438 40.457C57.4219 40.4831 57.5 40.4961 57.5781 40.4961C57.9688 40.4961 58.2161 40.3073 58.3203 39.9297C58.3464 39.8516 58.3594 39.7734 58.3594 39.6953C58.3594 39.1094 58.0599 38.7513 57.4609 38.6211C57.3307 38.5951 57.207 38.582 57.0898 38.582C56.3086 38.582 55.612 38.9141 55 39.5781C54.7135 39.8906 54.4857 40.2422 54.3164 40.6328L54.2383 38.6992H51.4062V39.1875H52.8711V45.3398C52.8711 45.9388 52.7018 46.2969 52.3633 46.4141C52.168 46.4792 51.849 46.5117 51.4062 46.5117V47H56.2305C56.2305 46.7135 56.1328 46.5573 55.9375 46.5312C55.8854 46.5182 55.8203 46.5117 55.7422 46.5117ZM65.8984 47H68.6914C68.6914 46.7135 68.5938 46.5573 68.3984 46.5312C68.3464 46.5182 68.2812 46.5117 68.2031 46.5117H67.2266L67.1875 34.3047H63.8672V34.793H65.7227V39.5586C65.0846 38.8555 64.2253 38.5039 63.1445 38.5039C61.7122 38.5039 60.6315 39.1419 59.9023 40.418C59.4596 41.1992 59.2383 42.0781 59.2383 43.0547C59.2383 44.6693 59.7461 45.8477 60.7617 46.5898C61.3346 46.9935 61.9661 47.1953 62.6562 47.1953C64.0755 47.1693 65.1042 46.4141 65.7422 44.9297L65.8984 47ZM60.8984 42.8203C60.8984 40.9844 61.3932 39.793 62.3828 39.2461C62.6953 39.0768 63.0404 38.9922 63.418 38.9922C64.3685 38.9922 65.0456 39.5 65.4492 40.5156C65.6706 41.0625 65.7812 41.707 65.7812 42.4492C65.7812 44.0117 65.3906 45.1445 64.6094 45.8477C64.1927 46.2253 63.7174 46.4141 63.1836 46.4141C62.1159 46.4141 61.4193 45.763 61.0938 44.4609C60.9635 43.9792 60.8984 43.4323 60.8984 42.8203ZM76.7969 47.1953C77.7995 47.1953 78.3529 46.5898 78.457 45.3789C78.4701 45.3008 78.4766 45.2292 78.4766 45.1641L77.9688 45.1445C77.8776 46.0951 77.6237 46.5768 77.207 46.5898C76.8685 46.5638 76.6927 46.2253 76.6797 45.5742V41.4531C76.6797 39.5911 75.7487 38.6081 73.8867 38.5039C73.7695 38.5039 73.6523 38.5039 73.5352 38.5039C72.0768 38.5039 71.1003 38.8424 70.6055 39.5195C70.4492 39.7409 70.3711 39.9622 70.3711 40.1836C70.3711 40.5872 70.5599 40.8216 70.9375 40.8867C71.0026 40.8997 71.0677 40.9062 71.1328 40.9062C71.4323 40.9062 71.6536 40.7174 71.7969 40.3398C71.9792 39.8581 72.1029 39.5716 72.168 39.4805C72.4154 39.1549 72.7995 38.9922 73.3203 38.9922C74.5443 39.0703 75.1758 39.7409 75.2148 41.0039V42.2344C72.1549 42.2344 70.4036 42.8724 69.9609 44.1484C69.8828 44.3958 69.8438 44.6628 69.8438 44.9492C69.8438 45.9388 70.2799 46.6159 71.1523 46.9805C71.5039 47.1237 71.875 47.1953 72.2656 47.1953C73.2161 47.1953 74.0169 46.8698 74.668 46.2188C74.9023 45.9714 75.0781 45.7109 75.1953 45.4375C75.3516 46.5964 75.8854 47.1823 76.7969 47.1953ZM72.9102 46.4141C72.1159 46.4141 71.6276 46.0169 71.4453 45.2227C71.4062 45.0404 71.3867 44.8385 71.3867 44.6172C71.3867 43.7448 71.888 43.1914 72.8906 42.957C73.4245 42.8398 74.1992 42.7747 75.2148 42.7617V44.3242C75.0195 45.2227 74.5443 45.8542 73.7891 46.2188C73.4896 46.349 73.1966 46.4141 72.9102 46.4141ZM82.9688 46.5117H82.0898V42.293C82.1289 41.1471 82.526 40.2943 83.2812 39.7344C83.6328 39.474 83.9844 39.3438 84.3359 39.3438C84.987 39.3438 85.4362 39.7018 85.6836 40.418C85.7878 40.7305 85.8398 41.082 85.8398 41.4727V45.3398C85.8398 45.9388 85.6966 46.2969 85.4102 46.4141C85.2279 46.4792 84.9154 46.5117 84.4727 46.5117V47H88.6719C88.6719 46.7135 88.5742 46.5573 88.3789 46.5312C88.3268 46.5182 88.2617 46.5117 88.1836 46.5117H87.3047V41.668V41.5117C87.513 40.5612 87.9753 39.8971 88.6914 39.5195C88.9648 39.3893 89.2253 39.3242 89.4727 39.3242C90.1367 39.3242 90.6055 39.6693 90.8789 40.3594C91.0091 40.6849 91.0742 41.056 91.0742 41.4727V45.3398C91.0742 45.9388 90.931 46.2969 90.6445 46.4141C90.4622 46.4792 90.1497 46.5117 89.707 46.5117V47H94.0234C94.0234 46.7135 93.9258 46.5573 93.7305 46.5312C93.6784 46.5182 93.6133 46.5117 93.5352 46.5117H92.5391V41.668C92.5391 40.3268 92.1029 39.3893 91.2305 38.8555C90.8398 38.6211 90.4167 38.5039 89.9609 38.5039C88.9714 38.5039 88.1771 38.9661 87.5781 39.8906C87.4219 40.125 87.2917 40.3724 87.1875 40.6328C86.9531 39.6042 86.4388 38.9401 85.6445 38.6406C85.4102 38.5495 85.1693 38.5039 84.9219 38.5039C83.9844 38.5039 83.2096 38.901 82.5977 39.6953C82.3763 39.9818 82.2005 40.3008 82.0703 40.6523L81.9922 38.6992H79.1602V39.1875H80.625V45.3398C80.625 45.9388 80.4557 46.2969 80.1172 46.4141C79.9219 46.4792 79.6029 46.5117 79.1602 46.5117V47H83.457C83.457 46.7266 83.3594 46.5703 83.1641 46.5312C83.099 46.5182 83.0339 46.5117 82.9688 46.5117ZM109.766 35.2812H106.641L102.422 44.832L97.8906 35.2812H95.0977V35.7891H96.6602V46.4922H95.0977V47H99.0039C99.0039 46.7135 98.8997 46.5508 98.6914 46.5117C98.6263 46.4987 98.5612 46.4922 98.4961 46.4922H97.4414V38.0938L101.719 47.0977H102.129L106.641 37.0391V46.4922H105.078V47H109.766C109.766 46.7135 109.661 46.5508 109.453 46.5117C109.388 46.4987 109.323 46.4922 109.258 46.4922H108.203V35.7891H109.766V35.2812Z" fill="black"/>
</g>
<defs>
<clipPath id="clip0">
<rect width="110" height="47" fill="white"/>
</clipPath>
</defs>
</svg>
