<svg width="95" height="47" viewBox="0 0 95 47" fill="none" xmlns="http://www.w3.org/2000/svg">
<g clip-path="url(#clip0)">
<path d="M51.9769 5C52.1009 4.01709 51.7194 3.39037 50.9827 2.6L49.9885 1.8L48 1C48 1 46.3848 1.56641 46.0115 1.8C45.5781 2.07126 45.3468 2.24654 45.0173 2.6C44.2806 3.39037 43.8991 4.01709 44.0231 5C44.1644 6.12069 45.1111 6.53748 46.0115 7.4C46.7179 8.07662 48 9 48 9C48 9 49.2821 8.07662 49.9885 7.4C50.8889 6.53748 51.8356 6.12069 51.9769 5Z" fill="black"/>
<path d="M46.0115 1.8C46.3848 1.56641 48 1 48 1V0L46.0115 1.8Z" fill="black"/>
<path d="M48 1L49.9885 1.8L48 0V1Z" fill="black"/>
<path d="M13.041 47C13.041 46.7135 12.9368 46.5508 12.7285 46.5117C12.6634 46.4987 12.5983 46.4922 12.5332 46.4922H11.8691L7.39648 35.2812H6.67383L2.29883 46.4922H1.06836V47H4.54492C4.54492 46.7135 4.44076 46.5508 4.23242 46.5117C4.16732 46.4987 4.10221 46.4922 4.03711 46.4922H3.08008L4.54492 42.7031H8.62695L10.0918 46.4922H8.82227V47H13.041ZM8.41211 42.1367H4.75977L6.57617 37.4102L8.41211 42.1367ZM17.4355 46.5117H16.5566V42.293C16.5957 41.1471 16.9928 40.2943 17.748 39.7344C18.0996 39.474 18.4512 39.3438 18.8027 39.3438C19.4538 39.3438 19.903 39.7018 20.1504 40.418C20.2546 40.7305 20.3066 41.082 20.3066 41.4727V45.3398C20.3066 45.9388 20.1634 46.2969 19.877 46.4141C19.6947 46.4792 19.3822 46.5117 18.9395 46.5117V47H23.1387C23.1387 46.7135 23.041 46.5573 22.8457 46.5312C22.7936 46.5182 22.7285 46.5117 22.6504 46.5117H21.7715V41.668V41.5117C21.9798 40.5612 22.4421 39.8971 23.1582 39.5195C23.4316 39.3893 23.6921 39.3242 23.9395 39.3242C24.6035 39.3242 25.0723 39.6693 25.3457 40.3594C25.4759 40.6849 25.541 41.056 25.541 41.4727V45.3398C25.541 45.9388 25.3978 46.2969 25.1113 46.4141C24.929 46.4792 24.6165 46.5117 24.1738 46.5117V47H28.4902C28.4902 46.7135 28.3926 46.5573 28.1973 46.5312C28.1452 46.5182 28.0801 46.5117 28.002 46.5117H27.0059V41.668C27.0059 40.3268 26.5697 39.3893 25.6973 38.8555C25.3066 38.6211 24.8835 38.5039 24.4277 38.5039C23.4382 38.5039 22.6439 38.9661 22.0449 39.8906C21.8887 40.125 21.7585 40.3724 21.6543 40.6328C21.4199 39.6042 20.9056 38.9401 20.1113 38.6406C19.877 38.5495 19.6361 38.5039 19.3887 38.5039C18.4512 38.5039 17.6764 38.901 17.0645 39.6953C16.8431 39.9818 16.6673 40.3008 16.5371 40.6523L16.459 38.6992H13.627V39.1875H15.0918V45.3398C15.0918 45.9388 14.9225 46.2969 14.584 46.4141C14.3887 46.4792 14.0697 46.5117 13.627 46.5117V47H17.9238C17.9238 46.7266 17.8262 46.5703 17.6309 46.5312C17.5658 46.5182 17.5007 46.5117 17.4355 46.5117ZM32.6895 46.668C33.5879 46.668 34.1934 46.3945 34.5059 45.8477C34.623 45.6523 34.6816 45.4375 34.6816 45.2031C34.6816 44.6562 34.2845 44.1875 33.4902 43.7969C33.321 43.7057 33.041 43.5755 32.6504 43.4062C31.5827 42.9635 30.873 42.5469 30.5215 42.1562C30.1439 41.7266 29.9551 41.2253 29.9551 40.6523C29.9551 39.7539 30.4499 39.1224 31.4395 38.7578C31.8952 38.5885 32.39 38.5039 32.9238 38.5039C33.7832 38.5039 34.5254 38.6862 35.1504 39.0508C35.1504 38.6732 35.2415 38.4583 35.4238 38.4062C35.502 38.3932 35.5866 38.3867 35.6777 38.3867V40.8281H35.1699C35.1439 39.6302 34.4798 39.0247 33.1777 39.0117C32.2012 39.0117 31.5957 39.2982 31.3613 39.8711C31.2962 40.0273 31.2637 40.1901 31.2637 40.3594C31.2637 40.9193 31.6673 41.3945 32.4746 41.7852C32.6569 41.8763 32.9434 42 33.334 42.1562C34.3887 42.5859 35.0918 42.9961 35.4434 43.3867C35.821 43.8034 36.0098 44.2982 36.0098 44.8711C36.0098 45.9258 35.4499 46.6289 34.3301 46.9805C33.9004 47.1237 33.4316 47.1953 32.9238 47.1953C31.9863 47.1823 31.1725 46.9479 30.4824 46.4922C30.4824 46.8307 30.3978 47.026 30.2285 47.0781C30.1504 47.0911 30.0592 47.0977 29.9551 47.0977V44.1289H30.502C30.528 45.8086 31.2572 46.6549 32.6895 46.668ZM37.1816 39.1875H38.5488V44.6953C38.64 46.3229 39.3887 47.1628 40.7949 47.2148C41.9928 47.2148 42.7415 46.4792 43.041 45.0078C43.041 44.9948 43.041 44.9818 43.041 44.9688L42.5137 44.8711C42.1882 45.9518 41.7129 46.5378 41.0879 46.6289C40.3848 46.6029 40.0267 46.1016 40.0137 45.125V39.1875H43.041V38.6992H40.0137V36.4336L38.5488 36.8438V38.6992H37.1816V39.1875ZM48.002 38.9922C48.9134 38.9922 49.5189 39.3763 49.8184 40.1445C49.9225 40.3919 49.9746 40.6589 49.9746 40.9453C49.9746 41.5964 49.6621 41.9935 49.0371 42.1367C48.7116 42.2018 48.2493 42.2279 47.6504 42.2148L45.5801 42.1562C45.6452 40.6589 46.1335 39.6823 47.0449 39.2266C47.3444 39.0703 47.6634 38.9922 48.002 38.9922ZM51.4004 45.125L50.9121 44.9492C50.4564 45.9388 49.7207 46.4987 48.7051 46.6289C48.5749 46.6419 48.4512 46.6484 48.334 46.6484C46.9668 46.6484 46.1074 45.8346 45.7559 44.207C45.6517 43.7513 45.5931 43.25 45.5801 42.7031L47.9238 42.7422C49.5124 42.7682 50.5345 42.6185 50.9902 42.293C51.3418 42.0326 51.5176 41.6615 51.5176 41.1797C51.5176 40.2943 51.0684 39.5911 50.1699 39.0703C49.5319 38.6927 48.7962 38.5039 47.9629 38.5039C46.3353 38.5039 45.1699 39.181 44.4668 40.5352C44.1022 41.2383 43.9199 42.0326 43.9199 42.918C43.9199 44.5326 44.4993 45.7305 45.6582 46.5117C46.3483 46.9674 47.1361 47.1953 48.0215 47.1953C49.4277 47.1953 50.4629 46.6875 51.127 45.6719C51.2311 45.4896 51.3223 45.3073 51.4004 45.125ZM57.1621 46.5117H55.7559V42.625C55.7559 41.4401 56.1204 40.4896 56.8496 39.7734C57.1361 39.5 57.377 39.3568 57.5723 39.3438C57.7936 39.3438 57.9954 39.5065 58.1777 39.832C58.3861 40.1966 58.5814 40.4049 58.7637 40.457C58.8418 40.4831 58.9199 40.4961 58.998 40.4961C59.3887 40.4961 59.6361 40.3073 59.7402 39.9297C59.7663 39.8516 59.7793 39.7734 59.7793 39.6953C59.7793 39.1094 59.4798 38.7513 58.8809 38.6211C58.7507 38.5951 58.627 38.582 58.5098 38.582C57.7285 38.582 57.0319 38.9141 56.4199 39.5781C56.1335 39.8906 55.9056 40.2422 55.7363 40.6328L55.6582 38.6992H52.8262V39.1875H54.291V45.3398C54.291 45.9388 54.1217 46.2969 53.7832 46.4141C53.5879 46.4792 53.2689 46.5117 52.8262 46.5117V47H57.6504C57.6504 46.7135 57.5527 46.5573 57.3574 46.5312C57.3053 46.5182 57.2402 46.5117 57.1621 46.5117ZM67.3184 47H70.1113C70.1113 46.7135 70.0137 46.5573 69.8184 46.5312C69.7663 46.5182 69.7012 46.5117 69.623 46.5117H68.6465L68.6074 34.3047H65.2871V34.793H67.1426V39.5586C66.5046 38.8555 65.6452 38.5039 64.5645 38.5039C63.1322 38.5039 62.0514 39.1419 61.3223 40.418C60.8796 41.1992 60.6582 42.0781 60.6582 43.0547C60.6582 44.6693 61.166 45.8477 62.1816 46.5898C62.7546 46.9935 63.3861 47.1953 64.0762 47.1953C65.4954 47.1693 66.5241 46.4141 67.1621 44.9297L67.3184 47ZM62.3184 42.8203C62.3184 40.9844 62.8132 39.793 63.8027 39.2461C64.1152 39.0768 64.4603 38.9922 64.8379 38.9922C65.7884 38.9922 66.4655 39.5 66.8691 40.5156C67.0905 41.0625 67.2012 41.707 67.2012 42.4492C67.2012 44.0117 66.8105 45.1445 66.0293 45.8477C65.6126 46.2253 65.1374 46.4141 64.6035 46.4141C63.5358 46.4141 62.8392 45.763 62.5137 44.4609C62.3835 43.9792 62.3184 43.4323 62.3184 42.8203ZM78.2168 47.1953C79.2194 47.1953 79.7728 46.5898 79.877 45.3789C79.89 45.3008 79.8965 45.2292 79.8965 45.1641L79.3887 45.1445C79.2975 46.0951 79.0436 46.5768 78.627 46.5898C78.2884 46.5638 78.1126 46.2253 78.0996 45.5742V41.4531C78.0996 39.5911 77.1686 38.6081 75.3066 38.5039C75.1895 38.5039 75.0723 38.5039 74.9551 38.5039C73.4967 38.5039 72.5202 38.8424 72.0254 39.5195C71.8691 39.7409 71.791 39.9622 71.791 40.1836C71.791 40.5872 71.9798 40.8216 72.3574 40.8867C72.4225 40.8997 72.4876 40.9062 72.5527 40.9062C72.8522 40.9062 73.0736 40.7174 73.2168 40.3398C73.3991 39.8581 73.5228 39.5716 73.5879 39.4805C73.8353 39.1549 74.2194 38.9922 74.7402 38.9922C75.9642 39.0703 76.5957 39.7409 76.6348 41.0039V42.2344C73.5749 42.2344 71.8236 42.8724 71.3809 44.1484C71.3027 44.3958 71.2637 44.6628 71.2637 44.9492C71.2637 45.9388 71.6999 46.6159 72.5723 46.9805C72.9238 47.1237 73.2949 47.1953 73.6855 47.1953C74.6361 47.1953 75.4368 46.8698 76.0879 46.2188C76.3223 45.9714 76.498 45.7109 76.6152 45.4375C76.7715 46.5964 77.3053 47.1823 78.2168 47.1953ZM74.3301 46.4141C73.5358 46.4141 73.0475 46.0169 72.8652 45.2227C72.8262 45.0404 72.8066 44.8385 72.8066 44.6172C72.8066 43.7448 73.3079 43.1914 74.3105 42.957C74.8444 42.8398 75.6191 42.7747 76.6348 42.7617V44.3242C76.4395 45.2227 75.9642 45.8542 75.209 46.2188C74.9095 46.349 74.6165 46.4141 74.3301 46.4141ZM84.3887 46.5117H83.5098V42.293C83.5488 41.1471 83.946 40.2943 84.7012 39.7344C85.0527 39.474 85.4043 39.3438 85.7559 39.3438C86.4069 39.3438 86.8561 39.7018 87.1035 40.418C87.2077 40.7305 87.2598 41.082 87.2598 41.4727V45.3398C87.2598 45.9388 87.1165 46.2969 86.8301 46.4141C86.6478 46.4792 86.3353 46.5117 85.8926 46.5117V47H90.0918C90.0918 46.7135 89.9941 46.5573 89.7988 46.5312C89.7467 46.5182 89.6816 46.5117 89.6035 46.5117H88.7246V41.668V41.5117C88.9329 40.5612 89.3952 39.8971 90.1113 39.5195C90.3848 39.3893 90.6452 39.3242 90.8926 39.3242C91.5566 39.3242 92.0254 39.6693 92.2988 40.3594C92.429 40.6849 92.4941 41.056 92.4941 41.4727V45.3398C92.4941 45.9388 92.3509 46.2969 92.0645 46.4141C91.8822 46.4792 91.5697 46.5117 91.127 46.5117V47H95.4434C95.4434 46.7135 95.3457 46.5573 95.1504 46.5312C95.0983 46.5182 95.0332 46.5117 94.9551 46.5117H93.959V41.668C93.959 40.3268 93.5228 39.3893 92.6504 38.8555C92.2598 38.6211 91.8366 38.5039 91.3809 38.5039C90.3913 38.5039 89.597 38.9661 88.998 39.8906C88.8418 40.125 88.7116 40.3724 88.6074 40.6328C88.373 39.6042 87.8587 38.9401 87.0645 38.6406C86.8301 38.5495 86.5892 38.5039 86.3418 38.5039C85.4043 38.5039 84.6296 38.901 84.0176 39.6953C83.7962 39.9818 83.6204 40.3008 83.4902 40.6523L83.4121 38.6992H80.5801V39.1875H82.0449V45.3398C82.0449 45.9388 81.8757 46.2969 81.5371 46.4141C81.3418 46.4792 81.0228 46.5117 80.5801 46.5117V47H84.877C84.877 46.7266 84.7793 46.5703 84.584 46.5312C84.5189 46.5182 84.4538 46.5117 84.3887 46.5117Z" fill="black"/>
<path d="M33.2865 11.162L28.2348 10.5C28.2348 10.5 26.1757 9.98891 28.7586 18.1204C31.3415 26.2519 43.2183 30.5076 43.2183 30.5076C43.2183 30.5076 38.9239 26.9253 37.8031 25.3405C36.6823 23.7557 34.904 21.0217 34.2449 17.7433C33.5859 14.465 33.2865 11.162 33.2865 11.162Z" fill="black"/>
<path d="M47.0851 10.8444C47.0388 11.6875 43.9114 16.8854 43.8189 18.5717C42.5911 23.677 47.0191 29.3046 45.9765 31.0372C30.1594 22.6872 36.3428 3.63787 36.3428 3.63787C36.3428 3.63787 44.4936 6.28097 47.0851 10.8444Z" fill="black"/>
<path d="M62.0399 11.6322L67.6381 11.2358C67.6381 11.2358 69.9281 10.833 66.8018 18.8283C63.6756 26.8236 50.4227 30.4546 50.4227 30.4546C50.4227 30.4546 55.2838 27.0982 56.5746 25.5725C57.8654 24.0467 59.9208 21.4063 60.7592 18.1628C61.5977 14.9193 62.0399 11.6322 62.0399 11.6322Z" fill="black"/>
<path d="M58.7022 20.2554C55.836 27.4995 47.9149 31.0426 47.9149 31.0426C47.9149 31.0426 44.2189 22.5208 47.0852 15.2766C49.9514 8.03249 58.7022 3.5 58.7022 3.5C58.7022 3.5 61.5685 13.0112 58.7022 20.2554Z" fill="black"/>
</g>
<defs>
<clipPath id="clip0">
<rect width="95" height="47" fill="white"/>
</clipPath>
</defs>
</svg>
