<svg width="180" height="32" viewBox="0 0 180 32" fill="none" xmlns="http://www.w3.org/2000/svg">
<g clip-path="url(#clip0)">
<path d="M24.9769 5C25.1008 4.01709 24.7194 3.39037 23.9827 2.6L22.9885 1.8L21 1C21 1 19.3848 1.56641 19.0115 1.8C18.5781 2.07126 18.3468 2.24654 18.0173 2.6C17.2806 3.39037 16.8991 4.01709 17.0231 5C17.1644 6.12069 18.1111 6.53748 19.0115 7.4C19.7179 8.07662 21 9 21 9C21 9 22.2821 8.07662 22.9885 7.4C23.8889 6.53748 24.8356 6.12069 24.9769 5Z" fill="black"/>
<path d="M19.0115 1.8C19.3848 1.56641 21 1 21 1V0L19.0115 1.8Z" fill="black"/>
<path d="M21 1L22.9885 1.8L21 0V1Z" fill="black"/>
<path d="M6.28655 11.162L1.23483 10.5C1.23483 10.5 -0.824318 9.98891 1.75861 18.1204C4.34154 26.2519 16.2183 30.5076 16.2183 30.5076C16.2183 30.5076 11.9239 26.9253 10.8031 25.3405C9.68232 23.7557 7.90397 21.0217 7.24492 17.7433C6.58587 14.465 6.28655 11.162 6.28655 11.162Z" fill="black"/>
<path d="M20.0851 10.8444C20.0388 11.6875 16.9114 16.8854 16.8189 18.5717C15.5911 23.677 20.0191 29.3046 18.9765 31.0372C3.15941 22.6872 9.34277 3.63787 9.34277 3.63787C9.34277 3.63787 17.4936 6.28097 20.0851 10.8444Z" fill="black"/>
<path d="M35.0399 11.6322L40.6381 11.2358C40.6381 11.2358 42.9281 10.833 39.8018 18.8283C36.6756 26.8236 23.4227 30.4546 23.4227 30.4546C23.4227 30.4546 28.2838 27.0982 29.5746 25.5725C30.8654 24.0467 32.9208 21.4063 33.7592 18.1628C34.5977 14.9193 35.0399 11.6322 35.0399 11.6322Z" fill="black"/>
<path d="M31.7022 20.2554C28.836 27.4995 20.9149 31.0426 20.9149 31.0426C20.9149 31.0426 17.2189 22.5208 20.0852 15.2766C22.9514 8.03249 31.7022 3.5 31.7022 3.5C31.7022 3.5 34.5685 13.0112 31.7022 20.2554Z" fill="black"/>
<g clip-path="url(#clip1)">
<path d="M57.2764 27C57.2764 26.6419 57.1462 26.4385 56.8857 26.3896C56.8044 26.3734 56.723 26.3652 56.6416 26.3652H55.8115L50.2207 12.3516H49.3174L43.8486 26.3652H42.3105V27H46.6562C46.6562 26.6419 46.526 26.4385 46.2656 26.3896C46.1842 26.3734 46.1029 26.3652 46.0215 26.3652H44.8252L46.6562 21.6289H51.7588L53.5898 26.3652H52.0029V27H57.2764ZM51.4902 20.9209H46.9248L49.1953 15.0127L51.4902 20.9209ZM62.7695 26.3896H61.6709V21.1162C61.7197 19.6839 62.2161 18.6178 63.1602 17.918C63.5996 17.5924 64.0391 17.4297 64.4785 17.4297C65.2923 17.4297 65.8538 17.8773 66.1631 18.7725C66.2933 19.1631 66.3584 19.6025 66.3584 20.0908V24.9248C66.3584 25.6735 66.1794 26.1211 65.8213 26.2676C65.5934 26.349 65.2028 26.3896 64.6494 26.3896V27H69.8984C69.8984 26.6419 69.7764 26.4466 69.5322 26.4141C69.4671 26.3978 69.3857 26.3896 69.2881 26.3896H68.1895V20.335V20.1396C68.4499 18.9515 69.0277 18.1214 69.9229 17.6494C70.2646 17.4867 70.5902 17.4053 70.8994 17.4053C71.7295 17.4053 72.3154 17.8366 72.6572 18.6992C72.82 19.1061 72.9014 19.57 72.9014 20.0908V24.9248C72.9014 25.6735 72.7223 26.1211 72.3643 26.2676C72.1364 26.349 71.7458 26.3896 71.1924 26.3896V27H76.5879C76.5879 26.6419 76.4658 26.4466 76.2217 26.4141C76.1566 26.3978 76.0752 26.3896 75.9775 26.3896H74.7324V20.335C74.7324 18.6585 74.1872 17.4867 73.0967 16.8193C72.6084 16.5264 72.0794 16.3799 71.5098 16.3799C70.2728 16.3799 69.2799 16.9577 68.5312 18.1133C68.3359 18.4062 68.1732 18.7155 68.043 19.041C67.75 17.7552 67.1071 16.9251 66.1143 16.5508C65.8213 16.4368 65.5202 16.3799 65.2109 16.3799C64.0391 16.3799 63.0706 16.8763 62.3057 17.8691C62.029 18.2272 61.8092 18.626 61.6465 19.0654L61.5488 16.624H58.0088V17.2344H59.8398V24.9248C59.8398 25.6735 59.6283 26.1211 59.2051 26.2676C58.9609 26.349 58.5622 26.3896 58.0088 26.3896V27H63.3799C63.3799 26.6582 63.2578 26.4629 63.0137 26.4141C62.9323 26.3978 62.8509 26.3896 62.7695 26.3896ZM81.8369 26.585C82.96 26.585 83.7168 26.2432 84.1074 25.5596C84.2539 25.3154 84.3271 25.0469 84.3271 24.7539C84.3271 24.0703 83.8307 23.4844 82.8379 22.9961C82.6263 22.8822 82.2764 22.7194 81.7881 22.5078C80.4535 21.9544 79.5664 21.4336 79.127 20.9453C78.6549 20.4082 78.4189 19.7816 78.4189 19.0654C78.4189 17.9424 79.0374 17.153 80.2744 16.6973C80.8441 16.4857 81.4626 16.3799 82.1299 16.3799C83.2041 16.3799 84.1318 16.6077 84.9131 17.0635C84.9131 16.5915 85.027 16.3229 85.2549 16.2578C85.3525 16.2415 85.4583 16.2334 85.5723 16.2334V19.2852H84.9375C84.9049 17.7878 84.0749 17.0309 82.4473 17.0146C81.2266 17.0146 80.4697 17.3727 80.1768 18.0889C80.0954 18.2842 80.0547 18.4876 80.0547 18.6992C80.0547 19.3991 80.5592 19.9932 81.5684 20.4814C81.7962 20.5954 82.1543 20.75 82.6426 20.9453C83.9609 21.4824 84.8398 21.9951 85.2793 22.4834C85.7513 23.0042 85.9873 23.6227 85.9873 24.3389C85.9873 25.6572 85.2874 26.5361 83.8877 26.9756C83.3506 27.1546 82.7646 27.2441 82.1299 27.2441C80.958 27.2279 79.9408 26.9349 79.0781 26.3652C79.0781 26.7884 78.9723 27.0326 78.7607 27.0977C78.6631 27.1139 78.5492 27.1221 78.4189 27.1221V23.4111H79.1025C79.1351 25.5107 80.0465 26.5687 81.8369 26.585ZM87.4521 17.2344H89.1611V24.1191C89.2751 26.1536 90.2109 27.2035 91.9688 27.2686C93.4661 27.2686 94.402 26.349 94.7764 24.5098C94.7764 24.4935 94.7764 24.4772 94.7764 24.4609L94.1172 24.3389C93.7103 25.6898 93.1162 26.4222 92.335 26.5361C91.4561 26.5036 91.0085 25.877 90.9922 24.6562V17.2344H94.7764V16.624H90.9922V13.792L89.1611 14.3047V16.624H87.4521V17.2344ZM100.978 16.9902C102.117 16.9902 102.874 17.4704 103.248 18.4307C103.378 18.7399 103.443 19.0736 103.443 19.4316C103.443 20.2454 103.053 20.7419 102.271 20.9209C101.865 21.0023 101.287 21.0348 100.538 21.0186L97.9502 20.9453C98.0316 19.0736 98.6419 17.8529 99.7812 17.2832C100.156 17.0879 100.554 16.9902 100.978 16.9902ZM105.226 24.6562L104.615 24.4365C104.046 25.6735 103.126 26.3734 101.856 26.5361C101.694 26.5524 101.539 26.5605 101.393 26.5605C99.6836 26.5605 98.6094 25.5433 98.1699 23.5088C98.0397 22.9391 97.9665 22.3125 97.9502 21.6289L100.88 21.6777C102.866 21.7103 104.143 21.5231 104.713 21.1162C105.152 20.7907 105.372 20.3268 105.372 19.7246C105.372 18.6178 104.811 17.7389 103.688 17.0879C102.89 16.6159 101.97 16.3799 100.929 16.3799C98.8942 16.3799 97.4375 17.2262 96.5586 18.9189C96.1029 19.7979 95.875 20.7907 95.875 21.8975C95.875 23.9157 96.5993 25.4131 98.0479 26.3896C98.9105 26.9593 99.8952 27.2441 101.002 27.2441C102.76 27.2441 104.054 26.6094 104.884 25.3398C105.014 25.112 105.128 24.8841 105.226 24.6562ZM112.428 26.3896H110.67V21.5312C110.67 20.0501 111.126 18.862 112.037 17.9668C112.395 17.625 112.696 17.446 112.94 17.4297C113.217 17.4297 113.469 17.6331 113.697 18.04C113.958 18.4958 114.202 18.7562 114.43 18.8213C114.527 18.8538 114.625 18.8701 114.723 18.8701C115.211 18.8701 115.52 18.6341 115.65 18.1621C115.683 18.0645 115.699 17.9668 115.699 17.8691C115.699 17.1367 115.325 16.6891 114.576 16.5264C114.413 16.4938 114.259 16.4775 114.112 16.4775C113.136 16.4775 112.265 16.8926 111.5 17.7227C111.142 18.1133 110.857 18.5527 110.646 19.041L110.548 16.624H107.008V17.2344H108.839V24.9248C108.839 25.6735 108.627 26.1211 108.204 26.2676C107.96 26.349 107.561 26.3896 107.008 26.3896V27H113.038C113.038 26.6419 112.916 26.4466 112.672 26.4141C112.607 26.3978 112.525 26.3896 112.428 26.3896ZM125.123 27H128.614C128.614 26.6419 128.492 26.4466 128.248 26.4141C128.183 26.3978 128.102 26.3896 128.004 26.3896H126.783L126.734 11.1309H122.584V11.7412H124.903V17.6982C124.106 16.8193 123.032 16.3799 121.681 16.3799C119.89 16.3799 118.539 17.1774 117.628 18.7725C117.075 19.749 116.798 20.8477 116.798 22.0684C116.798 24.0866 117.433 25.5596 118.702 26.4873C119.418 26.9919 120.208 27.2441 121.07 27.2441C122.844 27.2116 124.13 26.2676 124.928 24.4121L125.123 27ZM118.873 21.7754C118.873 19.4805 119.492 17.9912 120.729 17.3076C121.119 17.096 121.55 16.9902 122.022 16.9902C123.211 16.9902 124.057 17.625 124.562 18.8945C124.838 19.5781 124.977 20.3838 124.977 21.3115C124.977 23.2646 124.488 24.6807 123.512 25.5596C122.991 26.0316 122.397 26.2676 121.729 26.2676C120.395 26.2676 119.524 25.4538 119.117 23.8262C118.954 23.224 118.873 22.5404 118.873 21.7754ZM138.746 27.2441C139.999 27.2441 140.691 26.4873 140.821 24.9736C140.838 24.876 140.846 24.7865 140.846 24.7051L140.211 24.6807C140.097 25.8688 139.78 26.471 139.259 26.4873C138.836 26.4548 138.616 26.0316 138.6 25.2178V20.0664C138.6 17.7389 137.436 16.5101 135.108 16.3799C134.962 16.3799 134.815 16.3799 134.669 16.3799C132.846 16.3799 131.625 16.8031 131.007 17.6494C130.812 17.9261 130.714 18.2028 130.714 18.4795C130.714 18.984 130.95 19.277 131.422 19.3584C131.503 19.3747 131.585 19.3828 131.666 19.3828C132.04 19.3828 132.317 19.1468 132.496 18.6748C132.724 18.0726 132.879 17.7145 132.96 17.6006C133.269 17.1937 133.749 16.9902 134.4 16.9902C135.93 17.0879 136.72 17.9261 136.769 19.5049V21.043C132.944 21.043 130.755 21.8405 130.201 23.4355C130.104 23.7448 130.055 24.0785 130.055 24.4365C130.055 25.6735 130.6 26.5199 131.69 26.9756C132.13 27.1546 132.594 27.2441 133.082 27.2441C134.27 27.2441 135.271 26.8372 136.085 26.0234C136.378 25.7142 136.598 25.3887 136.744 25.0469C136.939 26.4954 137.607 27.2279 138.746 27.2441ZM133.888 26.2676C132.895 26.2676 132.285 25.7712 132.057 24.7783C132.008 24.5505 131.983 24.2982 131.983 24.0215C131.983 22.931 132.61 22.2393 133.863 21.9463C134.531 21.7998 135.499 21.7184 136.769 21.7021V23.6553C136.524 24.7783 135.93 25.5677 134.986 26.0234C134.612 26.1862 134.246 26.2676 133.888 26.2676ZM146.461 26.3896H145.362V21.1162C145.411 19.6839 145.908 18.6178 146.852 17.918C147.291 17.5924 147.73 17.4297 148.17 17.4297C148.984 17.4297 149.545 17.8773 149.854 18.7725C149.985 19.1631 150.05 19.6025 150.05 20.0908V24.9248C150.05 25.6735 149.871 26.1211 149.513 26.2676C149.285 26.349 148.894 26.3896 148.341 26.3896V27H153.59C153.59 26.6419 153.468 26.4466 153.224 26.4141C153.159 26.3978 153.077 26.3896 152.979 26.3896H151.881V20.335V20.1396C152.141 18.9515 152.719 18.1214 153.614 17.6494C153.956 17.4867 154.282 17.4053 154.591 17.4053C155.421 17.4053 156.007 17.8366 156.349 18.6992C156.511 19.1061 156.593 19.57 156.593 20.0908V24.9248C156.593 25.6735 156.414 26.1211 156.056 26.2676C155.828 26.349 155.437 26.3896 154.884 26.3896V27H160.279C160.279 26.6419 160.157 26.4466 159.913 26.4141C159.848 26.3978 159.767 26.3896 159.669 26.3896H158.424V20.335C158.424 18.6585 157.879 17.4867 156.788 16.8193C156.3 16.5264 155.771 16.3799 155.201 16.3799C153.964 16.3799 152.971 16.9577 152.223 18.1133C152.027 18.4062 151.865 18.7155 151.734 19.041C151.441 17.7552 150.799 16.9251 149.806 16.5508C149.513 16.4368 149.212 16.3799 148.902 16.3799C147.73 16.3799 146.762 16.8763 145.997 17.8691C145.72 18.2272 145.501 18.626 145.338 19.0654L145.24 16.624H141.7V17.2344H143.531V24.9248C143.531 25.6735 143.32 26.1211 142.896 26.2676C142.652 26.349 142.254 26.3896 141.7 26.3896V27H147.071C147.071 26.6582 146.949 26.4629 146.705 26.4141C146.624 26.3978 146.542 26.3896 146.461 26.3896ZM179.957 12.3516H176.051L170.777 24.29L165.113 12.3516H161.622V12.9863H163.575V26.3652H161.622V27H166.505C166.505 26.6419 166.375 26.4385 166.114 26.3896C166.033 26.3734 165.951 26.3652 165.87 26.3652H164.552V15.8672L169.898 27.1221H170.411L176.051 14.5488V26.3652H174.098V27H179.957C179.957 26.6419 179.827 26.4385 179.566 26.3896C179.485 26.3734 179.404 26.3652 179.322 26.3652H178.004V12.9863H179.957V12.3516Z" fill="black"/>
</g>
</g>
<defs>
<clipPath id="clip0">
<rect width="180" height="32" fill="white"/>
</clipPath>
<clipPath id="clip1">
<rect width="138" height="14" fill="white" transform="translate(43 13)"/>
</clipPath>
</defs>
</svg>
