<svg width="40" height="41" viewBox="0 0 40 41" fill="none" xmlns="http://www.w3.org/2000/svg">
<path d="M33.0864 0.490234H6.91358C3.10123 0.490234 0 3.60957 0 7.44417V33.7698C0 37.6044 3.10123 40.7237 6.91358 40.7237H33.0864C36.8988 40.7237 40 37.6044 40 33.7698V7.44417C40 3.60957 36.8988 0.490234 33.0864 0.490234ZM16.8494 6.78851L16.8691 6.82825H16.7704L16.8494 6.78851ZM32.8099 27.7894L32.5136 28.3457C31.3679 30.5511 28.8593 31.6836 26.4691 31.0478C22.7556 30.0345 19.121 27.9682 16.316 25.0873C13.4519 22.2461 11.3975 18.6102 10.3901 14.8749C9.73827 12.4709 10.8839 9.94758 13.0765 8.79522C13.3136 8.67601 13.5309 8.5568 13.7481 8.43758C14.4198 8.07995 15.2296 8.29851 15.6444 8.93429C16.3753 10.0469 17.4025 11.6563 18.6469 13.5636C19.0222 14.1398 18.9432 14.9147 18.4494 15.4114L17.3432 16.524C16.7901 17.0803 16.6321 17.9347 16.9679 18.6698C18.1333 21.2328 20.1679 23.2793 22.7161 24.4515C23.4272 24.7893 24.2765 24.6303 24.8494 24.074L25.8568 23.0607C26.3506 22.564 27.1012 22.4845 27.6938 22.862L32.3358 25.9019C32.9481 26.2993 33.1654 27.1139 32.8099 27.7894Z" fill="black"/>
</svg>
